PathFileType	4	(X/Y/Z)	s02c0001.trc
DataRate	CameraRate	NumFrames	NumMarkers	Units	OrigDataRate	OrigDataStartFrame	OrigNumFrames
200	200	6	49	mm	200	1000	2000
Frame#	Time	racr			lacr			c7			jug			rlel			rdr			llel			ldr			s2			lic			ric			lasi			rasi			rpsi			lpsi			rgt			lgt			rth1			rth2			rth3			rth4			rlfc			rmfc			rsh1			rsh2			rsh3			rsh4			rlmal			rmmal			rcal			rtoe			rmt5			rmt1			lth1			lth2			lth4			lth3			llfc			lmfc			lsh1			lsh2			lsh3			lsh4			llmal			lmmal			lcal			ltoe			lmt1			lmt5			
		X1	Y1	Z1	X2	Y2	Z2	X3	Y3	Z3	X4	Y4	Z4	X5	Y5	Z5	X6	Y6	Z6	X7	Y7	Z7	X8	Y8	Z8	X9	Y9	Z9	X10	Y10	Z10	X11	Y11	Z11	X12	Y12	Z12	X13	Y13	Z13	X14	Y14	Z14	X15	Y15	Z15	X16	Y16	Z16	X17	Y17	Z17	X18	Y18	Z18	X19	Y19	Z19	X20	Y20	Z20	X21	Y21	Z21	X22	Y22	Z22	X23	Y23	Z23	X24	Y24	Z24	X25	Y25	Z25	X26	Y26	Z26	X27	Y27	Z27	X28	Y28	Z28	X29	Y29	Z29	X30	Y30	Z30	X31	Y31	Z31	X32	Y32	Z32	X33	Y33	Z33	X34	Y34	Z34	X35	Y35	Z35	X36	Y36	Z36	X37	Y37	Z37	X38	Y38	Z38	X39	Y39	Z39	X40	Y40	Z40	X41	Y41	Z41	X42	Y42	Z42	X43	Y43	Z43	X44	Y44	Z44	X45	Y45	Z45	X46	Y46	Z46	X47	Y47	Z47	X48	Y48	Z48	X49	Y49	Z49	
1000	5.0000	566.888855	1430.235840	565.067505	593.817505	1422.881592	161.826508	546.372009	1480.014893	357.694733	649.371887	1382.358398	365.662323	535.642578	1144.616089	635.052734	628.335571	1019.077576	779.535645	567.524780	1114.286377	128.371857	740.915222	1039.850098	21.662176	478.026794	974.142761	364.008698	635.948059	1017.946594	228.731216	603.136719	1020.414185	514.450989	682.565674	968.501709	260.823792	652.204468	971.642273	494.929199	487.784882	1000.442627	408.627747	499.408966	996.246521	324.149414	553.118225	886.561218	538.949707	569.174988	886.308044	205.299820	588.124146	802.040710	551.879028	605.980103	714.325439	549.060608	579.615417	633.025696	558.653992	639.200439	712.185730	531.045471	559.300842	499.255951	515.443115	562.738281	484.344604	411.265747	529.960754	397.931885	532.752319	544.047058	311.259766	517.509460	514.556458	230.066055	513.866882	564.399475	313.529938	483.785034	503.193665	101.231537	499.485046	515.090332	114.602379	421.630371	451.175842	53.617645	442.784790	726.939758	86.639503	498.849091	615.359863	48.325882	537.561768	657.216797	71.492363	436.114105	597.551025	759.858276	188.019867	607.254578	672.985291	194.532852	641.287415	670.189941	210.263535	570.377380	592.732422	203.485962	562.955261	495.025177	224.156418	559.365906	469.055145	322.117401	536.982422	399.335114	200.003265	555.233398	315.768127	215.260696	529.287659	228.777115	214.398300	574.804077	318.126953	250.420547	518.880981	114.171791	231.607620	541.743530	118.665039	309.737732	468.774414	58.332134	277.561188	751.429688	81.895576	249.412796	674.176392	70.419472	302.651947	646.739258	46.394924	196.247818	
1001	5.0050	566.876038	1430.259033	565.056396	593.823181	1422.873413	161.815369	546.317627	1480.018433	357.726471	649.373413	1382.360474	365.647827	535.621887	1144.602173	635.031799	628.306641	1019.067261	779.528015	567.525452	1114.286377	128.372910	740.924377	1039.833740	21.671171	478.020996	974.153809	364.009827	635.943298	1017.933899	228.730331	603.139709	1020.418518	514.450073	682.552917	968.503784	260.810669	652.187073	971.647339	494.933014	487.783112	1000.444031	408.611938	499.408966	996.246521	324.149414	553.128479	886.558594	538.947021	569.177124	886.301758	205.299484	588.138428	802.043701	551.892578	605.976135	714.324524	549.067749	579.636963	633.016968	558.641907	639.204102	712.178650	531.046814	559.299988	499.247650	515.443665	562.804199	484.368225	411.283264	529.981628	397.925079	532.756531	544.057312	311.257294	517.517090	514.541016	230.054504	513.858398	564.399658	313.535004	483.786621	503.178131	101.241951	499.491150	515.075317	114.583336	421.629120	451.186676	53.607288	442.789276	726.927979	86.629997	498.850281	615.374878	48.309490	537.567444	657.210083	71.507469	436.121887	597.558411	759.855103	188.025635	607.274841	672.973511	194.522659	641.288818	670.204224	210.262650	570.367004	592.722595	203.487595	562.966492	495.035736	224.140778	559.364563	469.055969	322.124664	536.985779	399.326599	200.015137	555.229126	315.774963	215.259201	529.289307	228.776520	214.390839	574.830688	318.113342	250.418289	518.892822	114.168533	231.613647	541.743530	118.665039	309.737732	468.767761	58.330044	277.557617	751.445068	81.887192	249.415833	674.180176	70.428108	302.646667	646.741943	46.391045	196.268448	
1002	5.0100	566.911560	1430.240479	565.061279	593.817200	1422.875366	161.807388	546.347351	1480.027954	357.698700	649.365295	1382.355957	365.646240	535.619873	1144.622437	635.029114	628.296387	1019.066406	779.510742	567.539001	1114.267456	128.363266	740.929749	1039.840088	21.674866	478.022369	974.143311	363.986115	635.937744	1017.951904	228.710510	603.124573	1020.411682	514.438171	682.554443	968.498779	260.810455	652.216125	971.644409	494.939453	487.778992	1000.431702	408.619843	499.404358	996.258484	324.153992	553.129944	886.565125	538.947449	569.169495	886.302612	205.285965	588.130188	802.046692	551.878113	605.979126	714.326843	549.058350	579.644104	633.030334	558.640991	639.205017	712.175110	531.039124	559.311462	499.247894	515.433838	562.807068	484.362885	411.271545	529.997131	397.925140	532.758850	544.043213	311.261261	517.515076	514.541016	230.059875	513.860168	564.403992	313.537720	483.769379	503.164886	101.223030	499.501038	515.071106	114.600357	421.629974	451.178131	53.633709	442.778137	726.920715	86.623199	498.863281	615.370239	48.265282	537.605957	657.214783	71.493355	436.121582	597.552490	759.852478	188.021866	607.273560	672.969910	194.504730	641.297729	670.179260	210.257278	570.357422	592.730103	203.476807	562.929077	495.019653	224.140167	559.361816	469.062592	322.115265	536.979675	399.325897	200.000793	555.219604	315.768005	215.268799	529.272644	228.788910	214.395844	574.802063	318.129333	250.418335	518.899536	114.156189	231.624146	541.740356	118.672310	309.747772	468.769562	58.334217	277.552399	751.425781	81.880058	249.413742	674.171387	70.424858	302.649109	646.736633	46.397400	196.271179	
1003	5.0150	566.893188	1430.265991	565.036865	593.797852	1422.868896	161.787521	546.334229	1480.015503	357.686127	649.376343	1382.355835	365.628265	535.604370	1144.617188	635.011963	628.288452	1019.052307	779.502380	567.526001	1114.272217	128.368805	740.943726	1039.834473	21.663088	478.024902	974.140076	363.986542	635.939148	1017.943970	228.708252	603.122864	1020.416321	514.433350	682.559875	968.497986	260.790253	652.205444	971.640076	494.922821	487.773193	1000.443848	408.619232	499.404358	996.258484	324.153992	553.132019	886.559570	538.940063	569.177429	886.298889	205.287125	588.126465	802.042725	551.875427	605.978882	714.323181	549.063110	579.641052	633.031738	558.640564	639.197510	712.171509	531.029480	559.280334	499.258484	515.431030	562.777039	484.364227	411.270660	529.963684	397.926331	532.756714	544.067078	311.266418	517.506287	514.554382	230.064255	513.863831	564.388611	313.541016	483.789978	503.178680	101.226746	499.495270	515.094849	114.584061	421.621002	451.168365	53.632362	442.783600	726.926819	86.630768	498.852814	615.366760	48.332573	537.560730	657.207886	71.502396	436.104858	597.545959	759.857910	188.007553	607.272217	672.972107	194.502625	641.287598	670.208008	210.242691	570.364502	592.728882	203.489380	562.936157	495.009247	224.137512	559.349976	469.055389	322.101593	536.985718	399.338318	200.017654	555.225403	315.778076	215.255310	529.216003	228.818481	214.396622	574.817688	318.131470	250.434280	518.884949	114.160904	231.623795	541.732483	118.662537	309.726440	468.762177	58.327862	277.557831	751.477661	81.893028	249.409927	674.169434	70.428581	302.663391	646.776978	46.400223	196.272629	
1004	5.0200	566.875488	1430.235107	565.022156	593.780090	1422.860229	161.779648	546.342590	1480.026245	357.673828	649.366028	1382.356079	365.628448	535.605530	1144.602417	635.005005	628.265869	1019.044800	779.477905	567.536438	1114.253662	128.340240	740.947693	1039.843262	21.662260	478.023773	974.138916	363.979370	635.913391	1017.937744	228.698227	603.122925	1020.416321	514.433350	682.550293	968.503296	260.794067	652.201538	971.647339	494.926697	487.777344	1000.448669	408.613373	499.410614	996.250427	324.136749	553.132996	886.564880	538.940674	569.173096	886.293701	205.286362	588.124084	802.055908	551.879578	605.985535	714.330750	549.051697	579.626892	633.028625	558.627930	639.212463	712.178284	531.015137	559.296509	499.261871	515.427490	562.801147	484.366486	411.269470	529.973328	397.923401	532.753174	544.056641	311.267303	517.489990	514.547241	230.077988	513.857117	564.391602	313.531891	483.779175	503.181488	101.241486	499.490112	515.074158	114.598816	421.632996	451.163544	53.629234	442.793030	726.923645	86.640900	498.860413	615.383667	48.317387	537.558777	657.212341	71.498512	436.106445	597.546570	759.848572	188.002426	607.272705	672.995667	194.505844	641.279724	670.182861	210.265854	570.356567	592.731262	203.478714	562.953186	495.023224	224.151871	559.346069	469.061157	322.102966	536.977295	399.324310	199.998474	555.224121	315.769012	215.271484	529.270813	228.779190	214.384018	574.806702	318.132385	250.411407	518.889709	114.172127	231.615005	541.759094	118.654793	309.733185	468.768982	58.334503	277.558319	751.452393	81.873795	249.413940	674.172546	70.410751	302.653351	646.756409	46.386311	196.263626	
1005	5.0250	566.879028	1430.230957	565.020142	593.777893	1422.850952	161.771042	546.341553	1480.019165	357.658630	649.361206	1382.358032	365.594757	535.605530	1144.602295	635.005005	628.251953	1019.052917	779.489319	567.548157	1114.238770	128.364075	740.962158	1039.842163	21.649328	478.009277	974.153259	363.984406	635.915039	1017.942078	228.697189	603.132141	1020.428528	514.428345	682.554749	968.513062	260.786743	652.208191	971.660583	494.919861	487.776215	1000.439392	408.598846	499.410248	996.245667	324.141144	553.129883	886.564819	538.938843	569.175354	886.286743	205.285629	588.128113	802.055420	551.873047	605.971313	714.322937	549.040894	579.614746	633.023193	558.637207	639.208923	712.181580	531.018127	559.299316	499.253418	515.418396	562.805725	484.376007	411.267731	529.979797	397.937988	532.749329	544.056030	311.268372	517.494507	514.534729	230.062042	513.860046	564.391724	313.526794	483.779053	503.191101	101.233536	499.502716	515.089539	114.591034	421.622070	451.167480	53.630005	442.790039	726.923279	86.637955	498.856537	615.346619	48.284485	537.612976	657.235291	71.487152	436.116852	597.546570	759.859375	188.004410	607.273560	672.969910	194.504715	641.279846	670.185425	210.244308	570.358521	592.726929	203.496231	562.937622	495.009888	224.142426	559.344055	469.059875	322.107788	536.975891	399.339508	199.997986	555.222290	315.764862	215.267227	529.267212	228.784286	214.373917	574.789795	318.151520	250.407974	518.887634	114.157806	231.614502	541.761230	118.651657	309.731781	468.769531	58.333443	277.552612	751.456970	81.877426	249.401505	674.170410	70.431801	302.647125	646.779358	46.390717	196.253632	
